<svg width="64" height="64" viewBox="0 0 64 64" fill="none" xmlns="http://www.w3.org/2000/svg">
<g clip-path="url(#clip0_1_2)">
<rect width="64" height="64" rx="12" fill="white"/>
<rect width="64" height="64" rx="12" fill="#00BC7D"/>
<path d="M21.2556 18.6094C21.2222 17.8602 21.3389 17.1119 21.5988 16.4084C21.8588 15.705 22.2569 15.0606 22.7695 14.5133C23.2822 13.9659 23.8991 13.5266 24.584 13.2211C25.2689 12.9157 26.008 12.7503 26.7578 12.7346C27.5076 12.719 28.2529 12.8535 28.95 13.1301C29.647 13.4068 30.2817 13.82 30.8168 14.3455C31.3518 14.871 31.7763 15.4983 32.0654 16.1902C32.3544 16.8822 32.5022 17.6251 32.5 18.375V42.75M21.2556 18.6094C20.1535 18.8928 19.1303 19.4232 18.2636 20.1606C17.3968 20.898 16.7092 21.8229 16.2528 22.8653C15.7965 23.9078 15.5833 25.0404 15.6295 26.1775C15.6757 27.3145 15.98 28.4261 16.5194 29.4281C15.571 30.1986 14.8252 31.1892 14.3469 32.3136C13.8686 33.4381 13.6723 34.6624 13.7751 35.88C13.8778 37.0976 14.2765 38.2717 14.9365 39.3C15.5965 40.3284 16.4977 41.18 17.5619 41.7806C17.4305 42.7973 17.5089 43.8302 17.7923 44.8154C18.0757 45.8006 18.5581 46.7172 19.2096 47.5087C19.8611 48.3001 20.668 48.9496 21.5804 49.4171C22.4928 49.8845 23.4913 50.1599 24.5143 50.2263C25.5373 50.2926 26.5631 50.1486 27.5282 49.803C28.4934 49.4574 29.3774 48.9177 30.1258 48.217C30.8742 47.5164 31.471 46.6698 31.8793 45.7295C32.2877 44.7892 32.4989 43.7751 32.5 42.75M21.2556 18.6094C21.2927 19.5164 21.5487 20.4009 22.0019 21.1875M32.5 42.75H43.75C44.7446 42.75 45.6984 43.1451 46.4016 43.8483C47.1049 44.5516 47.5 45.5054 47.5 46.5V48.375M26.875 33.375C28.4492 32.8212 29.8238 31.8131 30.825 30.4781C31.8263 29.1432 32.4092 27.5413 32.5 25.875M16.5194 29.43C16.8624 29.1506 17.2294 28.9022 17.6163 28.6875M21.25 42.75C19.9578 42.7506 18.6874 42.4173 17.5619 41.7825M32.5 33.375H40M32.5 24H47.5M40 24V18.375C40 17.3804 40.3951 16.4266 41.0984 15.7233C41.8016 15.0201 42.7554 14.625 43.75 14.625M40.9375 33.375C40.9375 33.8928 40.5178 34.3125 40 34.3125C39.4822 34.3125 39.0625 33.8928 39.0625 33.375C39.0625 32.8572 39.4822 32.4375 40 32.4375C40.5178 32.4375 40.9375 32.8572 40.9375 33.375ZM44.6875 14.625C44.6875 15.1428 44.2678 15.5625 43.75 15.5625C43.2322 15.5625 42.8125 15.1428 42.8125 14.625C42.8125 14.1072 43.2322 13.6875 43.75 13.6875C44.2678 13.6875 44.6875 14.1072 44.6875 14.625ZM48.4375 48.375C48.4375 48.8928 48.0178 49.3125 47.5 49.3125C46.9822 49.3125 46.5625 48.8928 46.5625 48.375C46.5625 47.8572 46.9822 47.4375 47.5 47.4375C48.0178 47.4375 48.4375 47.8572 48.4375 48.375ZM48.4375 24C48.4375 24.5178 48.0178 24.9375 47.5 24.9375C46.9822 24.9375 46.5625 24.5178 46.5625 24C46.5625 23.4822 46.9822 23.0625 47.5 23.0625C48.0178 23.0625 48.4375 23.4822 48.4375 24Z" stroke="white" stroke-width="5" stroke-linejoin="round"/>
</g>
<defs>
<clipPath id="clip0_1_2">
<rect width="64" height="64" rx="12" fill="white"/>
</clipPath>
</defs>
</svg>
